<mxfile host="app.diagrams.net" agent="Mozilla/5.0 (Macintosh; Intel Mac OS X 10_15_7) AppleWebKit/605.1.15 (KHTML, like Gecko) Version/18.4 Safari/605.1.15" version="27.0.6">
  <diagram name="Página-1" id="mvy48OgYCe4QfIVt9dTh">
    <mxGraphModel grid="1" page="1" gridSize="10" guides="1" tooltips="1" connect="1" arrows="1" fold="1" pageScale="1" pageWidth="827" pageHeight="1169" math="0" shadow="0">
      <root>
        <mxCell id="0" />
        <mxCell id="1" parent="0" />
        <mxCell id="1mD2DLwj6i37Vq_x2VhC-1" value="Usuário" style="shape=umlLifeline;perimeter=lifelinePerimeter;whiteSpace=wrap;container=1;dropTarget=0;collapsible=0;recursiveResize=0;outlineConnect=0;portConstraint=eastwest;newEdgeStyle={&quot;edgeStyle&quot;:&quot;elbowEdgeStyle&quot;,&quot;elbow&quot;:&quot;vertical&quot;,&quot;curved&quot;:0,&quot;rounded&quot;:0};participant=umlActor;verticalAlign=bottom;labelPosition=center;verticalLabelPosition=top;align=center;size=65;" vertex="1" parent="1">
          <mxGeometry x="20" y="20" width="35" height="1304" as="geometry" />
        </mxCell>
        <mxCell id="1mD2DLwj6i37Vq_x2VhC-2" value="CriarFichaView" style="shape=umlLifeline;perimeter=lifelinePerimeter;whiteSpace=wrap;container=1;dropTarget=0;collapsible=0;recursiveResize=0;outlineConnect=0;portConstraint=eastwest;newEdgeStyle={&quot;edgeStyle&quot;:&quot;elbowEdgeStyle&quot;,&quot;elbow&quot;:&quot;vertical&quot;,&quot;curved&quot;:0,&quot;rounded&quot;:0};size=65;" vertex="1" parent="1">
          <mxGeometry x="336" y="20" width="150" height="1304" as="geometry" />
        </mxCell>
        <mxCell id="1mD2DLwj6i37Vq_x2VhC-3" value="FichaController" style="shape=umlLifeline;perimeter=lifelinePerimeter;whiteSpace=wrap;container=1;dropTarget=0;collapsible=0;recursiveResize=0;outlineConnect=0;portConstraint=eastwest;newEdgeStyle={&quot;edgeStyle&quot;:&quot;elbowEdgeStyle&quot;,&quot;elbow&quot;:&quot;vertical&quot;,&quot;curved&quot;:0,&quot;rounded&quot;:0};size=65;" vertex="1" parent="1">
          <mxGeometry x="684" y="20" width="150" height="1304" as="geometry" />
        </mxCell>
        <mxCell id="1mD2DLwj6i37Vq_x2VhC-4" value="" style="points=[];perimeter=orthogonalPerimeter;outlineConnect=0;targetShapes=umlLifeline;portConstraint=eastwest;newEdgeStyle={&quot;edgeStyle&quot;:&quot;elbowEdgeStyle&quot;,&quot;elbow&quot;:&quot;vertical&quot;,&quot;curved&quot;:0,&quot;rounded&quot;:0}" vertex="1" parent="1mD2DLwj6i37Vq_x2VhC-3">
          <mxGeometry x="70" y="159" width="10" height="998" as="geometry" />
        </mxCell>
        <mxCell id="1mD2DLwj6i37Vq_x2VhC-5" value="DefinirRacaService" style="shape=umlLifeline;perimeter=lifelinePerimeter;whiteSpace=wrap;container=1;dropTarget=0;collapsible=0;recursiveResize=0;outlineConnect=0;portConstraint=eastwest;newEdgeStyle={&quot;edgeStyle&quot;:&quot;elbowEdgeStyle&quot;,&quot;elbow&quot;:&quot;vertical&quot;,&quot;curved&quot;:0,&quot;rounded&quot;:0};size=65;" vertex="1" parent="1">
          <mxGeometry x="899" y="20" width="150" height="1304" as="geometry" />
        </mxCell>
        <mxCell id="1mD2DLwj6i37Vq_x2VhC-6" value="" style="points=[];perimeter=orthogonalPerimeter;outlineConnect=0;targetShapes=umlLifeline;portConstraint=eastwest;newEdgeStyle={&quot;edgeStyle&quot;:&quot;elbowEdgeStyle&quot;,&quot;elbow&quot;:&quot;vertical&quot;,&quot;curved&quot;:0,&quot;rounded&quot;:0}" vertex="1" parent="1mD2DLwj6i37Vq_x2VhC-5">
          <mxGeometry x="70" y="211" width="10" height="52" as="geometry" />
        </mxCell>
        <mxCell id="1mD2DLwj6i37Vq_x2VhC-7" value="DefinirClasseService" style="shape=umlLifeline;perimeter=lifelinePerimeter;whiteSpace=wrap;container=1;dropTarget=0;collapsible=0;recursiveResize=0;outlineConnect=0;portConstraint=eastwest;newEdgeStyle={&quot;edgeStyle&quot;:&quot;elbowEdgeStyle&quot;,&quot;elbow&quot;:&quot;vertical&quot;,&quot;curved&quot;:0,&quot;rounded&quot;:0};size=65;" vertex="1" parent="1">
          <mxGeometry x="1099" y="20" width="161" height="1304" as="geometry" />
        </mxCell>
        <mxCell id="1mD2DLwj6i37Vq_x2VhC-8" value="" style="points=[];perimeter=orthogonalPerimeter;outlineConnect=0;targetShapes=umlLifeline;portConstraint=eastwest;newEdgeStyle={&quot;edgeStyle&quot;:&quot;elbowEdgeStyle&quot;,&quot;elbow&quot;:&quot;vertical&quot;,&quot;curved&quot;:0,&quot;rounded&quot;:0}" vertex="1" parent="1mD2DLwj6i37Vq_x2VhC-7">
          <mxGeometry x="76" y="315" width="10" height="52" as="geometry" />
        </mxCell>
        <mxCell id="1mD2DLwj6i37Vq_x2VhC-9" value="DefinirArquetipoService" style="shape=umlLifeline;perimeter=lifelinePerimeter;whiteSpace=wrap;container=1;dropTarget=0;collapsible=0;recursiveResize=0;outlineConnect=0;portConstraint=eastwest;newEdgeStyle={&quot;edgeStyle&quot;:&quot;elbowEdgeStyle&quot;,&quot;elbow&quot;:&quot;vertical&quot;,&quot;curved&quot;:0,&quot;rounded&quot;:0};size=65;" vertex="1" parent="1">
          <mxGeometry x="1310" y="20" width="188" height="1304" as="geometry" />
        </mxCell>
        <mxCell id="1mD2DLwj6i37Vq_x2VhC-10" value="" style="points=[];perimeter=orthogonalPerimeter;outlineConnect=0;targetShapes=umlLifeline;portConstraint=eastwest;newEdgeStyle={&quot;edgeStyle&quot;:&quot;elbowEdgeStyle&quot;,&quot;elbow&quot;:&quot;vertical&quot;,&quot;curved&quot;:0,&quot;rounded&quot;:0}" vertex="1" parent="1mD2DLwj6i37Vq_x2VhC-9">
          <mxGeometry x="89" y="419" width="10" height="52" as="geometry" />
        </mxCell>
        <mxCell id="1mD2DLwj6i37Vq_x2VhC-11" value="DefinirNivelService" style="shape=umlLifeline;perimeter=lifelinePerimeter;whiteSpace=wrap;container=1;dropTarget=0;collapsible=0;recursiveResize=0;outlineConnect=0;portConstraint=eastwest;newEdgeStyle={&quot;edgeStyle&quot;:&quot;elbowEdgeStyle&quot;,&quot;elbow&quot;:&quot;vertical&quot;,&quot;curved&quot;:0,&quot;rounded&quot;:0};size=65;" vertex="1" parent="1">
          <mxGeometry x="1548" y="20" width="152" height="1304" as="geometry" />
        </mxCell>
        <mxCell id="1mD2DLwj6i37Vq_x2VhC-12" value="" style="points=[];perimeter=orthogonalPerimeter;outlineConnect=0;targetShapes=umlLifeline;portConstraint=eastwest;newEdgeStyle={&quot;edgeStyle&quot;:&quot;elbowEdgeStyle&quot;,&quot;elbow&quot;:&quot;vertical&quot;,&quot;curved&quot;:0,&quot;rounded&quot;:0}" vertex="1" parent="1mD2DLwj6i37Vq_x2VhC-11">
          <mxGeometry x="71" y="523" width="10" height="52" as="geometry" />
        </mxCell>
        <mxCell id="1mD2DLwj6i37Vq_x2VhC-13" value="DistribuirAtributosService" style="shape=umlLifeline;perimeter=lifelinePerimeter;whiteSpace=wrap;container=1;dropTarget=0;collapsible=0;recursiveResize=0;outlineConnect=0;portConstraint=eastwest;newEdgeStyle={&quot;edgeStyle&quot;:&quot;elbowEdgeStyle&quot;,&quot;elbow&quot;:&quot;vertical&quot;,&quot;curved&quot;:0,&quot;rounded&quot;:0};size=65;" vertex="1" parent="1">
          <mxGeometry x="1750" y="20" width="200" height="1304" as="geometry" />
        </mxCell>
        <mxCell id="1mD2DLwj6i37Vq_x2VhC-14" value="" style="points=[];perimeter=orthogonalPerimeter;outlineConnect=0;targetShapes=umlLifeline;portConstraint=eastwest;newEdgeStyle={&quot;edgeStyle&quot;:&quot;elbowEdgeStyle&quot;,&quot;elbow&quot;:&quot;vertical&quot;,&quot;curved&quot;:0,&quot;rounded&quot;:0}" vertex="1" parent="1mD2DLwj6i37Vq_x2VhC-13">
          <mxGeometry x="95" y="627" width="10" height="52" as="geometry" />
        </mxCell>
        <mxCell id="1mD2DLwj6i37Vq_x2VhC-15" value="DefinirEquipamentosService" style="shape=umlLifeline;perimeter=lifelinePerimeter;whiteSpace=wrap;container=1;dropTarget=0;collapsible=0;recursiveResize=0;outlineConnect=0;portConstraint=eastwest;newEdgeStyle={&quot;edgeStyle&quot;:&quot;elbowEdgeStyle&quot;,&quot;elbow&quot;:&quot;vertical&quot;,&quot;curved&quot;:0,&quot;rounded&quot;:0};size=65;" vertex="1" parent="1">
          <mxGeometry x="2000" y="20" width="217" height="1304" as="geometry" />
        </mxCell>
        <mxCell id="1mD2DLwj6i37Vq_x2VhC-16" value="" style="points=[];perimeter=orthogonalPerimeter;outlineConnect=0;targetShapes=umlLifeline;portConstraint=eastwest;newEdgeStyle={&quot;edgeStyle&quot;:&quot;elbowEdgeStyle&quot;,&quot;elbow&quot;:&quot;vertical&quot;,&quot;curved&quot;:0,&quot;rounded&quot;:0}" vertex="1" parent="1mD2DLwj6i37Vq_x2VhC-15">
          <mxGeometry x="104" y="731" width="10" height="52" as="geometry" />
        </mxCell>
        <mxCell id="1mD2DLwj6i37Vq_x2VhC-17" value="DefinirDescricaoService" style="shape=umlLifeline;perimeter=lifelinePerimeter;whiteSpace=wrap;container=1;dropTarget=0;collapsible=0;recursiveResize=0;outlineConnect=0;portConstraint=eastwest;newEdgeStyle={&quot;edgeStyle&quot;:&quot;elbowEdgeStyle&quot;,&quot;elbow&quot;:&quot;vertical&quot;,&quot;curved&quot;:0,&quot;rounded&quot;:0};size=65;" vertex="1" parent="1">
          <mxGeometry x="2267" y="20" width="185" height="1304" as="geometry" />
        </mxCell>
        <mxCell id="1mD2DLwj6i37Vq_x2VhC-18" value="" style="points=[];perimeter=orthogonalPerimeter;outlineConnect=0;targetShapes=umlLifeline;portConstraint=eastwest;newEdgeStyle={&quot;edgeStyle&quot;:&quot;elbowEdgeStyle&quot;,&quot;elbow&quot;:&quot;vertical&quot;,&quot;curved&quot;:0,&quot;rounded&quot;:0}" vertex="1" parent="1mD2DLwj6i37Vq_x2VhC-17">
          <mxGeometry x="88" y="835" width="10" height="52" as="geometry" />
        </mxCell>
        <mxCell id="1mD2DLwj6i37Vq_x2VhC-19" value="FichaRepository" style="shape=umlLifeline;perimeter=lifelinePerimeter;whiteSpace=wrap;container=1;dropTarget=0;collapsible=0;recursiveResize=0;outlineConnect=0;portConstraint=eastwest;newEdgeStyle={&quot;edgeStyle&quot;:&quot;elbowEdgeStyle&quot;,&quot;elbow&quot;:&quot;vertical&quot;,&quot;curved&quot;:0,&quot;rounded&quot;:0};size=65;" vertex="1" parent="1">
          <mxGeometry x="2502" y="20" width="150" height="1304" as="geometry" />
        </mxCell>
        <mxCell id="1mD2DLwj6i37Vq_x2VhC-20" value="" style="points=[];perimeter=orthogonalPerimeter;outlineConnect=0;targetShapes=umlLifeline;portConstraint=eastwest;newEdgeStyle={&quot;edgeStyle&quot;:&quot;elbowEdgeStyle&quot;,&quot;elbow&quot;:&quot;vertical&quot;,&quot;curved&quot;:0,&quot;rounded&quot;:0}" vertex="1" parent="1mD2DLwj6i37Vq_x2VhC-19">
          <mxGeometry x="70" y="939" width="10" height="156" as="geometry" />
        </mxCell>
        <mxCell id="1mD2DLwj6i37Vq_x2VhC-21" value="BancoDados" style="shape=umlLifeline;perimeter=lifelinePerimeter;whiteSpace=wrap;container=1;dropTarget=0;collapsible=0;recursiveResize=0;outlineConnect=0;portConstraint=eastwest;newEdgeStyle={&quot;edgeStyle&quot;:&quot;elbowEdgeStyle&quot;,&quot;elbow&quot;:&quot;vertical&quot;,&quot;curved&quot;:0,&quot;rounded&quot;:0};size=65;" vertex="1" parent="1">
          <mxGeometry x="2820" y="20" width="150" height="1304" as="geometry" />
        </mxCell>
        <mxCell id="1mD2DLwj6i37Vq_x2VhC-22" value="" style="points=[];perimeter=orthogonalPerimeter;outlineConnect=0;targetShapes=umlLifeline;portConstraint=eastwest;newEdgeStyle={&quot;edgeStyle&quot;:&quot;elbowEdgeStyle&quot;,&quot;elbow&quot;:&quot;vertical&quot;,&quot;curved&quot;:0,&quot;rounded&quot;:0}" vertex="1" parent="1mD2DLwj6i37Vq_x2VhC-21">
          <mxGeometry x="70" y="991" width="10" height="42" as="geometry" />
        </mxCell>
        <mxCell id="1mD2DLwj6i37Vq_x2VhC-23" value="iniciar &quot;Criar Ficha de Personagem&quot;" style="verticalAlign=bottom;edgeStyle=elbowEdgeStyle;elbow=vertical;curved=0;rounded=0;endArrow=block;" edge="1" parent="1" source="1mD2DLwj6i37Vq_x2VhC-1" target="1mD2DLwj6i37Vq_x2VhC-2">
          <mxGeometry relative="1" as="geometry">
            <Array as="points">
              <mxPoint x="262" y="127" />
            </Array>
            <mxPoint x="380" y="127" as="targetPoint" />
          </mxGeometry>
        </mxCell>
        <mxCell id="1mD2DLwj6i37Vq_x2VhC-24" value="criarFichaPersonagem(dto)" style="verticalAlign=bottom;edgeStyle=elbowEdgeStyle;elbow=vertical;curved=0;rounded=0;endArrow=block;" edge="1" parent="1" source="1mD2DLwj6i37Vq_x2VhC-2" target="1mD2DLwj6i37Vq_x2VhC-4">
          <mxGeometry relative="1" as="geometry">
            <Array as="points">
              <mxPoint x="594" y="179" />
            </Array>
          </mxGeometry>
        </mxCell>
        <mxCell id="1mD2DLwj6i37Vq_x2VhC-25" value="definirRaca(dto.raca)" style="verticalAlign=bottom;edgeStyle=elbowEdgeStyle;elbow=vertical;curved=0;rounded=0;endArrow=block;" edge="1" parent="1" source="1mD2DLwj6i37Vq_x2VhC-4" target="1mD2DLwj6i37Vq_x2VhC-6">
          <mxGeometry relative="1" as="geometry">
            <Array as="points">
              <mxPoint x="877" y="231" />
            </Array>
          </mxGeometry>
        </mxCell>
        <mxCell id="1mD2DLwj6i37Vq_x2VhC-26" value="raçaValida" style="verticalAlign=bottom;edgeStyle=elbowEdgeStyle;elbow=vertical;curved=0;rounded=0;dashed=1;dashPattern=2 3;endArrow=block;" edge="1" parent="1" source="1mD2DLwj6i37Vq_x2VhC-6" target="1mD2DLwj6i37Vq_x2VhC-4">
          <mxGeometry relative="1" as="geometry">
            <Array as="points">
              <mxPoint x="878" y="283" />
            </Array>
          </mxGeometry>
        </mxCell>
        <mxCell id="1mD2DLwj6i37Vq_x2VhC-27" value="definirClasse(dto.classe)" style="verticalAlign=bottom;edgeStyle=elbowEdgeStyle;elbow=vertical;curved=0;rounded=0;endArrow=block;" edge="1" parent="1" source="1mD2DLwj6i37Vq_x2VhC-4" target="1mD2DLwj6i37Vq_x2VhC-8">
          <mxGeometry relative="1" as="geometry">
            <Array as="points">
              <mxPoint x="980" y="335" />
            </Array>
          </mxGeometry>
        </mxCell>
        <mxCell id="1mD2DLwj6i37Vq_x2VhC-28" value="classeValida" style="verticalAlign=bottom;edgeStyle=elbowEdgeStyle;elbow=vertical;curved=0;rounded=0;dashed=1;dashPattern=2 3;endArrow=block;" edge="1" parent="1" source="1mD2DLwj6i37Vq_x2VhC-8" target="1mD2DLwj6i37Vq_x2VhC-4">
          <mxGeometry relative="1" as="geometry">
            <Array as="points">
              <mxPoint x="981" y="387" />
            </Array>
          </mxGeometry>
        </mxCell>
        <mxCell id="1mD2DLwj6i37Vq_x2VhC-29" value="definirArquetipo(dto.arquetipo)" style="verticalAlign=bottom;edgeStyle=elbowEdgeStyle;elbow=vertical;curved=0;rounded=0;endArrow=block;" edge="1" parent="1" source="1mD2DLwj6i37Vq_x2VhC-4" target="1mD2DLwj6i37Vq_x2VhC-10">
          <mxGeometry relative="1" as="geometry">
            <Array as="points">
              <mxPoint x="1092" y="439" />
            </Array>
          </mxGeometry>
        </mxCell>
        <mxCell id="1mD2DLwj6i37Vq_x2VhC-30" value="arquétipoValido" style="verticalAlign=bottom;edgeStyle=elbowEdgeStyle;elbow=vertical;curved=0;rounded=0;dashed=1;dashPattern=2 3;endArrow=block;" edge="1" parent="1" source="1mD2DLwj6i37Vq_x2VhC-10" target="1mD2DLwj6i37Vq_x2VhC-4">
          <mxGeometry relative="1" as="geometry">
            <Array as="points">
              <mxPoint x="1093" y="491" />
            </Array>
          </mxGeometry>
        </mxCell>
        <mxCell id="1mD2DLwj6i37Vq_x2VhC-31" value="definirNivelInicial(dto.nivel)" style="verticalAlign=bottom;edgeStyle=elbowEdgeStyle;elbow=vertical;curved=0;rounded=0;endArrow=block;" edge="1" parent="1" source="1mD2DLwj6i37Vq_x2VhC-4" target="1mD2DLwj6i37Vq_x2VhC-12">
          <mxGeometry relative="1" as="geometry">
            <Array as="points">
              <mxPoint x="1202" y="543" />
            </Array>
          </mxGeometry>
        </mxCell>
        <mxCell id="1mD2DLwj6i37Vq_x2VhC-32" value="nívelValido" style="verticalAlign=bottom;edgeStyle=elbowEdgeStyle;elbow=vertical;curved=0;rounded=0;dashed=1;dashPattern=2 3;endArrow=block;" edge="1" parent="1" source="1mD2DLwj6i37Vq_x2VhC-12" target="1mD2DLwj6i37Vq_x2VhC-4">
          <mxGeometry relative="1" as="geometry">
            <Array as="points">
              <mxPoint x="1203" y="595" />
            </Array>
          </mxGeometry>
        </mxCell>
        <mxCell id="1mD2DLwj6i37Vq_x2VhC-33" value="distribuirAtributos(dto.atributos)" style="verticalAlign=bottom;edgeStyle=elbowEdgeStyle;elbow=vertical;curved=0;rounded=0;endArrow=block;" edge="1" parent="1" source="1mD2DLwj6i37Vq_x2VhC-4" target="1mD2DLwj6i37Vq_x2VhC-14">
          <mxGeometry relative="1" as="geometry">
            <Array as="points">
              <mxPoint x="1315" y="647" />
            </Array>
          </mxGeometry>
        </mxCell>
        <mxCell id="1mD2DLwj6i37Vq_x2VhC-34" value="atributosValidos" style="verticalAlign=bottom;edgeStyle=elbowEdgeStyle;elbow=vertical;curved=0;rounded=0;dashed=1;dashPattern=2 3;endArrow=block;" edge="1" parent="1" source="1mD2DLwj6i37Vq_x2VhC-14" target="1mD2DLwj6i37Vq_x2VhC-4">
          <mxGeometry relative="1" as="geometry">
            <Array as="points">
              <mxPoint x="1316" y="699" />
            </Array>
          </mxGeometry>
        </mxCell>
        <mxCell id="1mD2DLwj6i37Vq_x2VhC-35" value="definirEquipamentos(dto.equipamentos)" style="verticalAlign=bottom;edgeStyle=elbowEdgeStyle;elbow=vertical;curved=0;rounded=0;endArrow=block;" edge="1" parent="1" source="1mD2DLwj6i37Vq_x2VhC-4" target="1mD2DLwj6i37Vq_x2VhC-16">
          <mxGeometry relative="1" as="geometry">
            <Array as="points">
              <mxPoint x="1444" y="751" />
            </Array>
          </mxGeometry>
        </mxCell>
        <mxCell id="1mD2DLwj6i37Vq_x2VhC-36" value="equipamentosValidos" style="verticalAlign=bottom;edgeStyle=elbowEdgeStyle;elbow=vertical;curved=0;rounded=0;dashed=1;dashPattern=2 3;endArrow=block;" edge="1" parent="1" source="1mD2DLwj6i37Vq_x2VhC-16" target="1mD2DLwj6i37Vq_x2VhC-4">
          <mxGeometry relative="1" as="geometry">
            <Array as="points">
              <mxPoint x="1445" y="803" />
            </Array>
          </mxGeometry>
        </mxCell>
        <mxCell id="1mD2DLwj6i37Vq_x2VhC-37" value="atribuirDescricao(dto.descricao)" style="verticalAlign=bottom;edgeStyle=elbowEdgeStyle;elbow=vertical;curved=0;rounded=0;endArrow=block;" edge="1" parent="1" source="1mD2DLwj6i37Vq_x2VhC-4" target="1mD2DLwj6i37Vq_x2VhC-18">
          <mxGeometry relative="1" as="geometry">
            <Array as="points">
              <mxPoint x="1570" y="855" />
            </Array>
          </mxGeometry>
        </mxCell>
        <mxCell id="1mD2DLwj6i37Vq_x2VhC-38" value="descricaoValida" style="verticalAlign=bottom;edgeStyle=elbowEdgeStyle;elbow=vertical;curved=0;rounded=0;dashed=1;dashPattern=2 3;endArrow=block;" edge="1" parent="1" source="1mD2DLwj6i37Vq_x2VhC-18" target="1mD2DLwj6i37Vq_x2VhC-4">
          <mxGeometry relative="1" as="geometry">
            <Array as="points">
              <mxPoint x="1571" y="907" />
            </Array>
          </mxGeometry>
        </mxCell>
        <mxCell id="1mD2DLwj6i37Vq_x2VhC-39" value="salvarFicha(dto)" style="verticalAlign=bottom;edgeStyle=elbowEdgeStyle;elbow=vertical;curved=0;rounded=0;endArrow=block;" edge="1" parent="1" source="1mD2DLwj6i37Vq_x2VhC-4" target="1mD2DLwj6i37Vq_x2VhC-20">
          <mxGeometry relative="1" as="geometry">
            <Array as="points">
              <mxPoint x="1679" y="959" />
            </Array>
          </mxGeometry>
        </mxCell>
        <mxCell id="1mD2DLwj6i37Vq_x2VhC-40" value="INSERT INTO ficha_personagem (...)" style="verticalAlign=bottom;edgeStyle=elbowEdgeStyle;elbow=vertical;curved=0;rounded=0;endArrow=block;" edge="1" parent="1" source="1mD2DLwj6i37Vq_x2VhC-20" target="1mD2DLwj6i37Vq_x2VhC-22">
          <mxGeometry relative="1" as="geometry">
            <Array as="points">
              <mxPoint x="2747" y="1011" />
            </Array>
          </mxGeometry>
        </mxCell>
        <mxCell id="1mD2DLwj6i37Vq_x2VhC-41" value="sucesso + idGerado" style="verticalAlign=bottom;edgeStyle=elbowEdgeStyle;elbow=vertical;curved=0;rounded=0;dashed=1;dashPattern=2 3;endArrow=block;" edge="1" parent="1" source="1mD2DLwj6i37Vq_x2VhC-21" target="1mD2DLwj6i37Vq_x2VhC-20">
          <mxGeometry relative="1" as="geometry">
            <Array as="points">
              <mxPoint x="2748" y="1063" />
            </Array>
          </mxGeometry>
        </mxCell>
        <mxCell id="1mD2DLwj6i37Vq_x2VhC-42" value="fichaPersistida" style="verticalAlign=bottom;edgeStyle=elbowEdgeStyle;elbow=vertical;curved=0;rounded=0;dashed=1;dashPattern=2 3;endArrow=block;" edge="1" parent="1" source="1mD2DLwj6i37Vq_x2VhC-20" target="1mD2DLwj6i37Vq_x2VhC-4">
          <mxGeometry relative="1" as="geometry">
            <Array as="points">
              <mxPoint x="1680" y="1115" />
            </Array>
          </mxGeometry>
        </mxCell>
        <mxCell id="1mD2DLwj6i37Vq_x2VhC-43" value="fichaCriadaComSucesso(fichaPersistida)" style="verticalAlign=bottom;edgeStyle=elbowEdgeStyle;elbow=vertical;curved=0;rounded=0;dashed=1;dashPattern=2 3;endArrow=block;" edge="1" parent="1" source="1mD2DLwj6i37Vq_x2VhC-4" target="1mD2DLwj6i37Vq_x2VhC-2">
          <mxGeometry relative="1" as="geometry">
            <Array as="points">
              <mxPoint x="595" y="1167" />
            </Array>
          </mxGeometry>
        </mxCell>
        <mxCell id="1mD2DLwj6i37Vq_x2VhC-44" value="exibirFicha(fichaPersistida)" style="verticalAlign=bottom;edgeStyle=elbowEdgeStyle;elbow=vertical;curved=0;rounded=0;dashed=1;dashPattern=2 3;endArrow=block;" edge="1" parent="1" source="1mD2DLwj6i37Vq_x2VhC-2" target="1mD2DLwj6i37Vq_x2VhC-1">
          <mxGeometry relative="1" as="geometry">
            <Array as="points">
              <mxPoint x="265" y="1219" />
            </Array>
          </mxGeometry>
        </mxCell>
      </root>
    </mxGraphModel>
  </diagram>
</mxfile>
